<svg xmlns="http://www.w3.org/2000/svg" xmlns:xlink="http://www.w3.org/1999/xlink" version="1.1" width="1000" height="1000" viewBox="0 0 1000 1000" xml:space="preserve">
<desc>Created with Fabric.js 3.5.0</desc>
<defs>
</defs>
<rect x="0" y="0" width="100%" height="100%" fill="rgba(255,255,255,0)"/>
<g transform="matrix(4.5524 0 0 4.5524 499.9994 477.2137)" id="462244">
<g style="">
		<g transform="matrix(6.2101 0 0 6.1843 -0.0021 0.0001)" id="196981" clip-path="url(#CLIPPATH_6)">
<clipPath id="CLIPPATH_6">
	<rect transform="matrix(1 0 0 1 63.4497 -0.0097)" id="clip0_2_750" x="-73.5" y="-11" rx="0" ry="0" width="147" height="22"/>
</clipPath>
<path style="stroke: none; stroke-width: 1; stroke-dasharray: none; stroke-linecap: butt; stroke-dashoffset: 0; stroke-linejoin: miter; stroke-miterlimit: 4; is-custom-font: none; font-file-url: none; fill: rgb(126,154,207); fill-rule: nonzero; opacity: 1;" transform=" translate(-10.0503, -11.0097)" d="M 20.1767 0.259008 V 10.9695 C 20.1767 13.4402 19.393 15.7174 18.0737 17.5362 C 17.2284 18.7031 16.1614 19.6831 14.9406 20.4023 C 14.8237 20.4719 14.7067 20.537 14.5877 20.6022 C 13.2192 21.3367 11.6742 21.7539 10.0349 21.7626 C 10.0185 21.7626 10.0021 21.7626 9.98565 21.7626 H 9.77842 C 7.95646 21.7626 6.25145 21.2389 4.78649 20.3263 C 1.8771 18.5119 -0.0761719 15.1611 -0.0761719 11.3259 V 10.7631 C -0.0761719 6.91695 1.87505 3.55321 4.78649 1.72358 C 4.9691 1.60842 5.15581 1.49977 5.34457 1.39764 C 6.67206 0.680563 8.16984 0.272047 9.75791 0.256836 C 9.78663 0.256836 9.81536 0.256836 9.84203 0.256836 H 20.1767 V 0.259008 Z" stroke-linecap="round"/>
</g>
		<g transform="matrix(6.2101 0 0 6.1843 -16.3904 0.0001)" id="949775" clip-path="url(#CLIPPATH_7)">
<clipPath id="CLIPPATH_7">
	<rect transform="matrix(1 0 0 1 66.0887 -0.0097)" id="clip0_2_750" x="-73.5" y="-11" rx="0" ry="0" width="147" height="22"/>
</clipPath>
<path style="stroke: none; stroke-width: 1; stroke-dasharray: none; stroke-linecap: butt; stroke-dashoffset: 0; stroke-linejoin: miter; stroke-miterlimit: 4; is-custom-font: none; font-file-url: none; fill: rgb(120,199,206); fill-rule: nonzero; opacity: 1;" transform=" translate(-7.4113, -11.0097)" d="M 10.0355 0.259008 V 21.7626 C 10.0191 21.7626 10.0027 21.7626 9.98627 21.7626 H 9.77904 C 7.95708 21.7626 6.25207 21.2389 4.78711 20.3263 V 1.72358 C 4.96972 1.60842 5.15643 1.49977 5.34519 1.39764 C 6.67268 0.680563 8.17046 0.272047 9.75852 0.256836 C 9.78725 0.256836 9.81597 0.256836 9.84264 0.256836 H 10.0355 V 0.259008 Z" stroke-linecap="round"/>
</g>
		<g transform="matrix(6.2101 0 0 6.1843 10.3002 -3.5744)" id="534583" clip-path="url(#CLIPPATH_8)">
<clipPath id="CLIPPATH_8">
	<rect transform="matrix(1 0 0 1 61.7908 0.5683)" id="clip0_2_750" x="-73.5" y="-11" rx="0" ry="0" width="147" height="22"/>
</clipPath>
<path style="stroke: none; stroke-width: 1; stroke-dasharray: none; stroke-linecap: butt; stroke-dashoffset: 0; stroke-linejoin: miter; stroke-miterlimit: 4; is-custom-font: none; font-file-url: none; fill: rgb(132,206,191); fill-rule: nonzero; opacity: 1;" transform=" translate(-11.7093, -10.4317)" d="M 18.0728 17.5384 C 17.2274 18.7053 16.1605 19.6853 14.9397 20.4045 C 14.8228 20.4741 14.7058 20.5392 14.5868 20.6044 L 10.034 11.1434 L 5.3457 1.39984 C 6.67319 0.68276 8.17097 0.274244 9.75904 0.259033 L 10.034 0.82835 L 14.9397 11.0239 L 18.0728 17.5384 Z" stroke-linecap="round"/>
</g>
		<g transform="matrix(6.2101 0 0 6.1843 46.6301 -4.2062)" id="777812" clip-path="url(#CLIPPATH_9)">
<clipPath id="CLIPPATH_9">
	<rect transform="matrix(1 0 0 1 55.9406 0.6704)" id="clip0_2_750" x="-73.5" y="-11" rx="0" ry="0" width="147" height="22"/>
</clipPath>
<path style="stroke: none; stroke-width: 1; stroke-dasharray: none; stroke-linecap: butt; stroke-dashoffset: 0; stroke-linejoin: miter; stroke-miterlimit: 4; is-custom-font: none; font-file-url: none; fill: rgb(120,199,206); fill-rule: nonzero; opacity: 1;" transform=" translate(-17.5594, -10.3296)" d="M 20.1775 0.259008 V 10.9695 C 20.1775 13.4402 19.3937 15.7174 18.0744 17.5362 C 17.2291 18.7031 16.1622 19.6831 14.9414 20.4023 V 0.256836 H 20.1775 V 0.259008 Z" stroke-linecap="round"/>
</g>
</g>
</g>
</svg>